<?xml version="1.0" encoding="utf-8"?>
<!-- Generator: Adobe Illustrator 25.0.1, SVG Export Plug-In . SVG Version: 6.00 Build 0)  -->
<svg version="1.1" id="Layer_1" xmlns="http://www.w3.org/2000/svg" xmlns:xlink="http://www.w3.org/1999/xlink" x="0px" y="0px"
	 viewBox="0 0 3000 999.6" style="enable-background:new 0 0 3000 999.6;" xml:space="preserve">
<style type="text/css">
	.st0{fill:#273E2E;}
	.st1{fill:#F5F5F5;}
	.st2{fill:#94CC87;}
	.st3{fill:#171717;}
</style>
<g>
	<g>
		<path class="st2" d="M1357.7,50.6v160.2H989.2v226.7h306.8V599H989.2v350H779.7V50.6H1357.7z"/>
		<path class="st2" d="M1625.1,414.2h33.3c30.8,0,53-9.6,66.5-29L1927,91.9c11.1-16,23.7-26.9,37.9-32.7c14.2-5.7,31.5-8.6,52.1-8.6
			h181.1L1931.9,414c-9.5,13.2-19.3,24.1-29.6,32.7c-10.3,8.6-20.8,15.8-31.4,21.6c15.6,5.8,29.9,13.7,42.8,23.7
			c12.9,10.1,24.7,23.5,35.4,40.4L2220.3,949h-186.1c-11.9,0-22.1-0.8-30.5-2.5c-8.4-1.6-15.7-4.1-21.9-7.4c-6.2-3.3-11.5-7.3-16-12
			c-4.5-4.7-8.8-10.2-12.9-16.3l-203.3-312.4c-7.4-11.5-16.8-19.6-28-24.3c-11.3-4.7-26.6-7.1-45.9-7.1h-50.5v382h-208.3V50.6h208.3
			V414.2z"/>
	</g>
	<g>
		<path class="st0" d="M79.1,462.8l499.1-261.5v132.6c0,9.5-2.5,18.2-7.4,26.2c-4.9,8-12.7,14.9-23.4,20.7l-175,94.4
			c-10.7,5.8-22,10.6-33.9,14.5c-11.9,3.9-24.5,7.5-37.6,10.8c13.1,3.3,25.7,6.7,37.6,10.2c11.9,3.5,23.2,8.1,33.9,13.9l175,95
			c10.7,5.8,18.5,12.5,23.4,20.4c4.9,7.8,7.4,16.5,7.4,25.9v132.6L79.1,537.4V462.8z"/>
	</g>
	<g>
		<path class="st0" d="M2920.9,552.7l-499.1,260.9V681c0-9.4,2.5-18.1,7.4-25.9c4.9-7.8,12.7-14.6,23.4-20.4l175-95
			c10.3-5.7,21.4-10.4,33.6-13.9c12.1-3.5,24.7-6.9,37.9-10.2c-13.2-3.3-25.8-6.9-37.9-10.8c-12.1-3.9-23.3-8.7-33.6-14.5l-175-94.4
			c-10.7-5.7-18.5-12.6-23.4-20.7c-4.9-8-7.4-16.8-7.4-26.2V216.6l499.1,261.5V552.7z"/>
	</g>
</g>
</svg>
